HIERARCHY
ROOT Hips
{
  OFFSET 0.000000 95.000000 0.000000
  CHANNELS 6 Xposition Yposition Zposition Zrotation Xrotation Yrotation
  JOINT Spine
  {
    OFFSET 0.000000 10.000000 0.000000
    CHANNELS 3 Zrotation Xrotation Yrotation
    JOINT Spine1
    {
      OFFSET 0.000000 12.000000 0.000000
      CHANNELS 3 Zrotation Xrotation Yrotation
      JOINT Spine2
      {
        OFFSET 0.000000 12.000000 0.000000
        CHANNELS 3 Zrotation Xrotation Yrotation
        JOINT Neck
        {
          OFFSET 0.000000 10.000000 0.000000
          CHANNELS 3 Zrotation Xrotation Yrotation
          JOINT Head
          {
            OFFSET 0.000000 8.000000 0.000000
            CHANNELS 3 Zrotation Xrotation Yrotation
            End Site
            {
              OFFSET 0.000000 10.000000 0.000000
            }
          }
        }
        JOINT LeftShoulder
        {
          OFFSET 6.000000 8.000000 0.000000
          CHANNELS 3 Zrotation Xrotation Yrotation
          JOINT LeftArm
          {
            OFFSET 12.000000 0.000000 0.000000
            CHANNELS 3 Zrotation Xrotation Yrotation
            JOINT LeftForeArm
            {
              OFFSET 24.000000 0.000000 0.000000
              CHANNELS 3 Zrotation Xrotation Yrotation
              JOINT LeftHand
              {
                OFFSET 22.000000 0.000000 0.000000
                CHANNELS 3 Zrotation Xrotation Yrotation
                JOINT LeftHandThumb1
                {
                  OFFSET 1.800000 -1.400000 0.500000
                  CHANNELS 3 Zrotation Xrotation Yrotation
                  JOINT LeftHandThumb2
                  {
                    OFFSET 2.400000 0.000000 0.000000
                    CHANNELS 3 Zrotation Xrotation Yrotation
                    JOINT LeftHandThumb3
                    {
                      OFFSET 1.900000 0.000000 0.000000
                      CHANNELS 3 Zrotation Xrotation Yrotation
                      End Site
                      {
                        OFFSET 1.600000 0.000000 0.000000
                      }
                    }
                  }
                }
                JOINT LeftHandIndex1
                {
                  OFFSET 6.600000 1.200000 0.300000
                  CHANNELS 3 Zrotation Xrotation Yrotation
                  JOINT LeftHandIndex2
                  {
                    OFFSET 2.000000 0.000000 0.000000
                    CHANNELS 3 Zrotation Xrotation Yrotation
                    JOINT LeftHandIndex3
                    {
                      OFFSET 1.200000 0.000000 0.000000
                      CHANNELS 3 Zrotation Xrotation Yrotation
                      End Site
                      {
                        OFFSET 1.000000 0.000000 0.000000
                      }
                    }
                  }
                }
                JOINT LeftHandMiddle1
                {
                  OFFSET 7.200000 0.000000 0.300000
                  CHANNELS 3 Zrotation Xrotation Yrotation
                  JOINT LeftHandMiddle2
                  {
                    OFFSET 3.000000 0.000000 0.000000
                    CHANNELS 3 Zrotation Xrotation Yrotation
                    JOINT LeftHandMiddle3
                    {
                      OFFSET 2.000000 0.000000 0.000000
                      CHANNELS 3 Zrotation Xrotation Yrotation
                      End Site
                      {
                        OFFSET 1.600000 0.000000 0.000000
                      }
                    }
                  }
                }
                JOINT LeftHandRing1
                {
                  OFFSET 7.100000 -1.000000 0.400000
                  CHANNELS 3 Zrotation Xrotation Yrotation
                  JOINT LeftHandRing2
                  {
                    OFFSET 2.600000 0.000000 0.000000
                    CHANNELS 3 Zrotation Xrotation Yrotation
                    JOINT LeftHandRing3
                    {
                      OFFSET 1.600000 0.000000 0.000000
                      CHANNELS 3 Zrotation Xrotation Yrotation
                      End Site
                      {
                        OFFSET 1.300000 0.000000 0.000000
                      }
                    }
                  }
                }
                JOINT LeftHandPinky1
                {
                  OFFSET 6.500000 -2.000000 0.500000
                  CHANNELS 3 Zrotation Xrotation Yrotation
                  JOINT LeftHandPinky2
                  {
                    OFFSET 1.900000 0.000000 0.000000
                    CHANNELS 3 Zrotation Xrotation Yrotation
                    JOINT LeftHandPinky3
                    {
                      OFFSET 1.400000 0.000000 0.000000
                      CHANNELS 3 Zrotation Xrotation Yrotation
                      End Site
                      {
                        OFFSET 1.300000 0.000000 0.000000
                      }
                    }
                  }
                }
              }
            }
          }
        }
        JOINT RightShoulder
        {
          OFFSET -6.000000 8.000000 0.000000
          CHANNELS 3 Zrotation Xrotation Yrotation
          JOINT RightArm
          {
            OFFSET -12.000000 0.000000 0.000000
            CHANNELS 3 Zrotation Xrotation Yrotation
            JOINT RightForeArm
            {
              OFFSET -24.000000 0.000000 0.000000
              CHANNELS 3 Zrotation Xrotation Yrotation
              JOINT RightHand
              {
                OFFSET -22.000000 0.000000 0.000000
                CHANNELS 3 Zrotation Xrotation Yrotation
                JOINT RightHandThumb1
                {
                  OFFSET -1.800000 -1.400000 0.500000
                  CHANNELS 3 Zrotation Xrotation Yrotation
                  JOINT RightHandThumb2
                  {
                    OFFSET -2.400000 0.000000 0.000000
                    CHANNELS 3 Zrotation Xrotation Yrotation
                    JOINT RightHandThumb3
                    {
                      OFFSET -1.900000 0.000000 0.000000
                      CHANNELS 3 Zrotation Xrotation Yrotation
                      End Site
                      {
                        OFFSET -1.600000 0.000000 0.000000
                      }
                    }
                  }
                }
                JOINT RightHandIndex1
                {
                  OFFSET -6.600000 1.200000 0.300000
                  CHANNELS 3 Zrotation Xrotation Yrotation
                  JOINT RightHandIndex2
                  {
                    OFFSET -2.000000 0.000000 0.000000
                    CHANNELS 3 Zrotation Xrotation Yrotation
                    JOINT RightHandIndex3
                    {
                      OFFSET -1.200000 0.000000 0.000000
                      CHANNELS 3 Zrotation Xrotation Yrotation
                      End Site
                      {
                        OFFSET -1.000000 0.000000 0.000000
                      }
                    }
                  }
                }
                JOINT RightHandMiddle1
                {
                  OFFSET -7.200000 0.000000 0.300000
                  CHANNELS 3 Zrotation Xrotation Yrotation
                  JOINT RightHandMiddle2
                  {
                    OFFSET -3.000000 0.000000 0.000000
                    CHANNELS 3 Zrotation Xrotation Yrotation
                    JOINT RightHandMiddle3
                    {
                      OFFSET -2.000000 0.000000 0.000000
                      CHANNELS 3 Zrotation Xrotation Yrotation
                      End Site
                      {
                        OFFSET -1.600000 0.000000 0.000000
                      }
                    }
                  }
                }
                JOINT RightHandRing1
                {
                  OFFSET -7.100000 -1.000000 0.400000
                  CHANNELS 3 Zrotation Xrotation Yrotation
                  JOINT RightHandRing2
                  {
                    OFFSET -2.600000 0.000000 0.000000
                    CHANNELS 3 Zrotation Xrotation Yrotation
                    JOINT RightHandRing3
                    {
                      OFFSET -1.600000 0.000000 0.000000
                      CHANNELS 3 Zrotation Xrotation Yrotation
                      End Site
                      {
                        OFFSET -1.300000 0.000000 0.000000
                      }
                    }
                  }
                }
                JOINT RightHandPinky1
                {
                  OFFSET -6.500000 -2.000000 0.500000
                  CHANNELS 3 Zrotation Xrotation Yrotation
                  JOINT RightHandPinky2
                  {
                    OFFSET -1.900000 0.000000 0.000000
                    CHANNELS 3 Zrotation Xrotation Yrotation
                    JOINT RightHandPinky3
                    {
                      OFFSET -1.400000 0.000000 0.000000
                      CHANNELS 3 Zrotation Xrotation Yrotation
                      End Site
                      {
                        OFFSET -1.300000 0.000000 0.000000
                      }
                    }
                  }
                }
              }
            }
          }
        }
      }
    }
  }
  JOINT LeftUpLeg
  {
    OFFSET 10.000000 -5.000000 0.000000
    CHANNELS 3 Zrotation Xrotation Yrotation
    JOINT LeftLeg
    {
      OFFSET 0.000000 -42.000000 0.000000
      CHANNELS 3 Zrotation Xrotation Yrotation
      JOINT LeftFoot
      {
        OFFSET 0.000000 -42.000000 4.000000
        CHANNELS 3 Zrotation Xrotation Yrotation
        End Site
        {
          OFFSET 0.000000 0.000000 12.000000
        }
      }
    }
  }
  JOINT RightUpLeg
  {
    OFFSET -10.000000 -5.000000 0.000000
    CHANNELS 3 Zrotation Xrotation Yrotation
    JOINT RightLeg
    {
      OFFSET 0.000000 -42.000000 0.000000
      CHANNELS 3 Zrotation Xrotation Yrotation
      JOINT RightFoot
      {
        OFFSET 0.000000 -42.000000 4.000000
        CHANNELS 3 Zrotation Xrotation Yrotation
        End Site
        {
          OFFSET 0.000000 0.000000 12.000000
        }
      }
    }
  }
}
MOTION
Frames: 7
Frame Time: 0.033333
0.0000 95.0000 0.0000 0.0000 0.0000 0.0000 0.0000 0.0000 0.0000 0.0000 0.0000 0.0000 0.0000 0.0000 0.0000 0.0000 0.0000 0.0000 0.0000 0.0000 0.0000 0.0000 0.0000 0.0000 -80.2937 5.1835 6.1437 -11.4795 -0.7285 2.4746 -151.3634 -8.6407 168.6442 60.0640 -11.6819 8.2073 26.5171 0.0000 0.0000 22.4787 0.0000 0.0000 -19.7792 0.8442 5.1985 95.7937 0.0000 0.0000 69.2569 0.0000 0.0000 -9.3396 0.5019 1.3663 110.0000 0.0000 0.0000 7.5326 0.0000 0.0000 1.8388 -0.0054 0.7867 110.0000 0.0000 0.0000 14.5750 0.0000 0.0000 14.2930 -1.1616 -0.5577 110.0000 0.0000 0.0000 18.8209 0.0000 0.0000 0.0000 0.0000 0.0000 87.0432 -1.7629 1.8563 -2.5541 11.6858 11.6442 149.7174 37.2547 154.8465 -66.1449 -13.7077 0.2262 12.6837 0.0000 0.0000 6.5342 0.0000 0.0000 -12.2066 0.2418 2.7504 44.6492 0.0000 0.0000 35.7568 0.0000 0.0000 -29.2597 2.1478 12.9867 38.4206 0.0000 0.0000 33.6645 0.0000 0.0000 -37.4417 -0.0040 10.9922 39.7191 0.0000 0.0000 23.5081 0.0000 0.0000 -45.7276 -2.4070 8.6106 29.3633 0.0000 0.0000 19.8251 0.0000 0.0000 0.0000 0.0000 0.0000 0.0000 0.0000 0.0000 0.0000 0.0000 0.0000 0.0000 0.0000 0.0000 0.0000 0.0000 0.0000 0.0000 0.0000 0.0000
0.0000 95.0000 0.0000 0.0000 0.0000 0.0000 0.0000 0.0000 0.0000 0.0000 0.0000 0.0000 0.0000 0.0000 0.0000 0.0000 0.0000 0.0000 0.0000 0.0000 0.0000 0.0000 0.0000 0.0000 -80.3044 5.1221 6.0698 -11.4889 -0.7715 2.5213 -151.3792 -8.6191 168.6685 60.0640 -11.6819 8.2073 26.5171 0.0000 0.0000 22.4787 0.0000 0.0000 -19.7792 0.8442 5.1985 95.7937 0.0000 0.0000 69.2569 0.0000 0.0000 -9.3396 0.5019 1.3663 110.0000 0.0000 0.0000 7.5326 0.0000 0.0000 1.8388 -0.0054 0.7867 110.0000 0.0000 0.0000 14.5750 0.0000 0.0000 14.2930 -1.1616 -0.5577 110.0000 0.0000 0.0000 18.8209 0.0000 0.0000 0.0000 0.0000 0.0000 87.0845 -1.8443 1.9406 -2.5130 11.5844 11.5382 149.8515 37.2700 154.9371 -66.1449 -13.7077 0.2262 12.6837 0.0000 0.0000 6.5342 0.0000 0.0000 -12.2066 0.2418 2.7504 44.6492 0.0000 0.0000 35.7568 0.0000 0.0000 -29.2597 2.1478 12.9867 38.4206 0.0000 0.0000 33.6645 0.0000 0.0000 -37.4417 -0.0040 10.9922 39.7191 0.0000 0.0000 23.5081 0.0000 0.0000 -45.7276 -2.4070 8.6106 29.3633 0.0000 0.0000 19.8251 0.0000 0.0000 0.0000 0.0000 0.0000 0.0000 0.0000 0.0000 0.0000 0.0000 0.0000 0.0000 0.0000 0.0000 0.0000 0.0000 0.0000 0.0000 0.0000 0.0000
0.0000 95.0000 0.0000 0.0000 0.0000 0.0000 0.0000 0.0000 0.0000 0.0000 0.0000 0.0000 0.0000 0.0000 0.0000 0.0000 0.0000 0.0000 0.0000 0.0000 0.0000 0.0000 0.0000 0.0000 -80.6817 5.0321 5.9236 -11.3496 -0.7854 2.4757 -151.6299 -8.5069 168.8305 60.0640 -11.6819 8.2073 26.5171 0.0000 0.0000 22.4787 0.0000 0.0000 -19.7792 0.8442 5.1985 95.7937 0.0000 0.0000 69.2569 0.0000 0.0000 -9.3396 0.5019 1.3663 110.0000 0.0000 0.0000 7.5326 0.0000 0.0000 1.8388 -0.0054 0.7867 110.0000 0.0000 0.0000 14.5750 0.0000 0.0000 14.2930 -1.1616 -0.5577 110.0000 0.0000 0.0000 18.8209 0.0000 0.0000 0.0000 0.0000 0.0000 87.0235 -2.0944 2.2061 -2.4459 11.3836 11.3471 149.8821 37.3404 154.8826 -66.1449 -13.7077 0.2262 12.6837 0.0000 0.0000 6.5342 0.0000 0.0000 -12.2066 0.2418 2.7504 44.6492 0.0000 0.0000 35.7568 0.0000 0.0000 -29.2597 2.1478 12.9867 38.4206 0.0000 0.0000 33.6645 0.0000 0.0000 -37.4417 -0.0040 10.9922 39.7191 0.0000 0.0000 23.5081 0.0000 0.0000 -45.7276 -2.4070 8.6106 29.3633 0.0000 0.0000 19.8251 0.0000 0.0000 0.0000 0.0000 0.0000 0.0000 0.0000 0.0000 0.0000 0.0000 0.0000 0.0000 0.0000 0.0000 0.0000 0.0000 0.0000 0.0000 0.0000 0.0000
0.0000 95.0000 0.0000 0.0000 0.0000 0.0000 0.0000 0.0000 0.0000 0.0000 0.0000 0.0000 0.0000 0.0000 0.0000 0.0000 0.0000 0.0000 0.0000 0.0000 0.0000 0.0000 0.0000 0.0000 -81.0932 4.8249 5.6387 -11.4085 -0.7694 2.3865 -152.1317 -8.2571 169.1755 60.0640 -11.6819 8.2073 26.5171 0.0000 0.0000 22.4787 0.0000 0.0000 -19.7792 0.8442 5.1985 95.7937 0.0000 0.0000 69.2569 0.0000 0.0000 -9.3396 0.5019 1.3663 110.0000 0.0000 0.0000 7.5326 0.0000 0.0000 1.8388 -0.0054 0.7867 110.0000 0.0000 0.0000 14.5750 0.0000 0.0000 14.2930 -1.1616 -0.5577 110.0000 0.0000 0.0000 18.8209 0.0000 0.0000 0.0000 0.0000 0.0000 86.8507 -2.1913 2.3152 -2.1531 11.4029 11.4630 149.9261 37.5189 154.7177 -66.1449 -13.7077 0.2262 12.6837 0.0000 0.0000 6.5342 0.0000 0.0000 -12.2066 0.2418 2.7504 44.6492 0.0000 0.0000 35.7568 0.0000 0.0000 -29.2597 2.1478 12.9867 38.4206 0.0000 0.0000 33.6645 0.0000 0.0000 -37.4417 -0.0040 10.9922 39.7191 0.0000 0.0000 23.5081 0.0000 0.0000 -45.7276 -2.4070 8.6106 29.3633 0.0000 0.0000 19.8251 0.0000 0.0000 0.0000 0.0000 0.0000 0.0000 0.0000 0.0000 0.0000 0.0000 0.0000 0.0000 0.0000 0.0000 0.0000 0.0000 0.0000 0.0000 0.0000 0.0000
0.0000 95.0000 0.0000 0.0000 0.0000 0.0000 0.0000 0.0000 0.0000 0.0000 0.0000 0.0000 0.0000 0.0000 0.0000 0.0000 0.0000 0.0000 0.0000 0.0000 0.0000 0.0000 0.0000 0.0000 -81.0577 4.9068 5.7380 -11.1138 -0.7619 2.3547 -151.7980 -8.2849 169.0799 60.0640 -11.6819 8.2073 26.5171 0.0000 0.0000 22.4787 0.0000 0.0000 -19.7792 0.8442 5.1985 95.7937 0.0000 0.0000 69.2569 0.0000 0.0000 -9.3396 0.5019 1.3663 110.0000 0.0000 0.0000 7.5326 0.0000 0.0000 1.8388 -0.0054 0.7867 110.0000 0.0000 0.0000 14.5750 0.0000 0.0000 14.2930 -1.1616 -0.5577 110.0000 0.0000 0.0000 18.8209 0.0000 0.0000 0.0000 0.0000 0.0000 86.8986 -2.1766 2.2976 -2.0159 11.4499 11.5346 150.1078 37.6078 154.7644 -66.1449 -13.7077 0.2262 12.6837 0.0000 0.0000 6.5342 0.0000 0.0000 -12.2066 0.2418 2.7504 44.6492 0.0000 0.0000 35.7568 0.0000 0.0000 -29.2597 2.1478 12.9867 38.4206 0.0000 0.0000 33.6645 0.0000 0.0000 -37.4417 -0.0040 10.9922 39.7191 0.0000 0.0000 23.5081 0.0000 0.0000 -45.7276 -2.4070 8.6106 29.3633 0.0000 0.0000 19.8251 0.0000 0.0000 0.0000 0.0000 0.0000 0.0000 0.0000 0.0000 0.0000 0.0000 0.0000 0.0000 0.0000 0.0000 0.0000 0.0000 0.0000 0.0000 0.0000 0.0000
0.0000 95.0000 0.0000 0.0000 0.0000 0.0000 0.0000 0.0000 0.0000 0.0000 0.0000 0.0000 0.0000 0.0000 0.0000 0.0000 0.0000 0.0000 0.0000 0.0000 0.0000 0.0000 0.0000 0.0000 -80.8806 5.0300 5.9004 -11.4813 -0.6699 2.3198 -151.9908 -8.3987 169.0105 60.0640 -11.6819 8.2073 26.5171 0.0000 0.0000 22.4787 0.0000 0.0000 -19.7792 0.8442 5.1985 95.7937 0.0000 0.0000 69.2569 0.0000 0.0000 -9.3396 0.5019 1.3663 110.0000 0.0000 0.0000 7.5326 0.0000 0.0000 1.8388 -0.0054 0.7867 110.0000 0.0000 0.0000 14.5750 0.0000 0.0000 14.2930 -1.1616 -0.5577 110.0000 0.0000 0.0000 18.8209 0.0000 0.0000 0.0000 0.0000 0.0000 86.9775 -2.1004 2.2142 -2.1184 11.6005 11.6513 150.0176 37.6360 154.6602 -66.1449 -13.7077 0.2262 12.6837 0.0000 0.0000 6.5342 0.0000 0.0000 -12.2066 0.2418 2.7504 44.6492 0.0000 0.0000 35.7568 0.0000 0.0000 -29.2597 2.1478 12.9867 38.4206 0.0000 0.0000 33.6645 0.0000 0.0000 -37.4417 -0.0040 10.9922 39.7191 0.0000 0.0000 23.5081 0.0000 0.0000 -45.7276 -2.4070 8.6106 29.3633 0.0000 0.0000 19.8251 0.0000 0.0000 0.0000 0.0000 0.0000 0.0000 0.0000 0.0000 0.0000 0.0000 0.0000 0.0000 0.0000 0.0000 0.0000 0.0000 0.0000 0.0000 0.0000 0.0000
0.0000 95.0000 0.0000 0.0000 0.0000 0.0000 0.0000 0.0000 0.0000 0.0000 0.0000 0.0000 0.0000 0.0000 0.0000 0.0000 0.0000 0.0000 0.0000 0.0000 0.0000 0.0000 0.0000 0.0000 -81.2592 4.8347 5.6337 -11.5612 -0.5062 2.0282 -152.5146 -7.9828 169.5151 60.0640 -11.6819 8.2073 26.5171 0.0000 0.0000 22.4787 0.0000 0.0000 -19.7792 0.8442 5.1985 95.7937 0.0000 0.0000 69.2569 0.0000 0.0000 -9.3396 0.5019 1.3663 110.0000 0.0000 0.0000 7.5326 0.0000 0.0000 1.8388 -0.0054 0.7867 110.0000 0.0000 0.0000 14.5750 0.0000 0.0000 14.2930 -1.1616 -0.5577 110.0000 0.0000 0.0000 18.8209 0.0000 0.0000 0.0000 0.0000 0.0000 86.8759 -2.2036 2.3271 -1.6660 11.6977 11.8734 150.2610 37.9618 154.4926 -66.1449 -13.7077 0.2262 12.6837 0.0000 0.0000 6.5342 0.0000 0.0000 -12.2066 0.2418 2.7504 44.6492 0.0000 0.0000 35.7568 0.0000 0.0000 -29.2597 2.1478 12.9867 38.4206 0.0000 0.0000 33.6645 0.0000 0.0000 -37.4417 -0.0040 10.9922 39.7191 0.0000 0.0000 23.5081 0.0000 0.0000 -45.7276 -2.4070 8.6106 29.3633 0.0000 0.0000 19.8251 0.0000 0.0000 0.0000 0.0000 0.0000 0.0000 0.0000 0.0000 0.0000 0.0000 0.0000 0.0000 0.0000 0.0000 0.0000 0.0000 0.0000 0.0000 0.0000 0.0000
